HIERARCHY
ROOT Hips
{
	OFFSET -0.179506 -22.333345 2.821913
	CHANNELS 6 Xposition Yposition Zposition Zrotation Yrotation Xrotation 
	JOINT LeftUpLeg
	{
		OFFSET 6.951974 -9.140623 -0.681533
		CHANNELS 3 Zrotation Yrotation Xrotation
		JOINT LeftLeg
		{
			OFFSET 3.427654 -37.519855 -0.449580
			CHANNELS 3 Zrotation Yrotation Xrotation
			JOINT LeftFoot
			{
				OFFSET -1.359570 -39.796059 -4.369333
				CHANNELS 3 Zrotation Yrotation Xrotation
				JOINT LeftToe
				{
					OFFSET 2.635814 -5.579078 11.928840
					CHANNELS 3 Zrotation Yrotation Xrotation
					End Site
					{
						OFFSET 0.000000 0.000000 0.000000
					}
				}
			}
		}
	}
	JOINT RightUpLeg
	{
		OFFSET -6.767048 -9.052170 -0.431982
		CHANNELS 3 Zrotation Yrotation Xrotation
		JOINT RightLeg
		{
			OFFSET -3.829005 -38.256897 -0.885003
			CHANNELS 3 Zrotation Yrotation Xrotation
			JOINT RightFoot
			{
				OFFSET 1.577377 -39.841461 -4.231180
				CHANNELS 3 Zrotation Yrotation Xrotation
				JOINT RightToe
				{
					OFFSET -2.537174 -4.814398 12.334795
					CHANNELS 3 Zrotation Yrotation Xrotation
					End Site
					{
						OFFSET 0.000000 0.000000 0.000000
					}
				}
			}
		}
	}
	JOINT Spine
	{
		OFFSET -0.253288 10.896323 -2.669631
		CHANNELS 3 Zrotation Yrotation Xrotation
		JOINT Spine1
		{
			OFFSET 0.548704 13.518043 0.109247
			CHANNELS 3 Zrotation Yrotation Xrotation
			JOINT Spine2
			{
				OFFSET 0.145701 5.292222 2.542457
				CHANNELS 3 Zrotation Yrotation Xrotation
				JOINT Neck
				{
					OFFSET -0.277840 21.387037 -4.285703
					CHANNELS 3 Zrotation Yrotation Xrotation
					JOINT Head
					{
						OFFSET 0.515184 6.496960 5.134897
						CHANNELS 3 Zrotation Yrotation Xrotation
						End Site
						{
							OFFSET 0.000000 0.000000 0.000000
						}
					}
				}
				JOINT LeftShoulder
				{
					OFFSET 7.884473 12.174932 -3.408961
					CHANNELS 3 Zrotation Yrotation Xrotation
					JOINT LeftArm
					{
						OFFSET 9.097692 3.046888 -0.886815
						CHANNELS 3 Zrotation Yrotation Xrotation
						JOINT LeftForeArm
						{
							OFFSET 25.961220 -1.277207 -2.745643
							CHANNELS 3 Zrotation Yrotation Xrotation
							JOINT LeftHand
							{
								OFFSET 24.923361 0.898606 -0.117091
								CHANNELS 3 Zrotation Yrotation Xrotation
								End Site
								{
									OFFSET 0.000000 0.000000 0.000000
								}
							}
						}
					}
				}
				JOINT RightShoulder
				{
					OFFSET -8.175920 11.883285 -3.861528
					CHANNELS 3 Zrotation Yrotation Xrotation
					JOINT RightArm
					{
						OFFSET -9.601238 3.255117 -0.914307
						CHANNELS 3 Zrotation Yrotation Xrotation
						JOINT RightForeArm
						{
							OFFSET -25.374195 -1.332924 -2.140099
							CHANNELS 3 Zrotation Yrotation Xrotation
							JOINT RightHand
							{
								OFFSET -25.529810 0.777228 -0.555919
								CHANNELS 3 Zrotation Yrotation Xrotation
								End Site
								{
									OFFSET 0.000000 0.000000 0.000000
								}
							}
						}
					}
				}
			}
		}
	}
}
MOTION
Frames: 15
Frame Time: 0.033333
-22.648685 32.475410 88.897507 80.443196 4.487830 83.286662 17.484919 9.707084 -8.201390 -6.154536 7.998376 36.773212 3.011186 13.853012 -31.513597 nan nan nan -15.687626 -11.947282 -12.351116 4.041592 -12.090271 22.715180 6.710972 -2.773236 -10.246073 nan nan nan -4.887551 3.689887 2.407919 10.396703 -5.538614 14.166897 2.707947 0.986862 -6.648152 5.511975 -19.301892 19.656293 2.577552 -15.121271 17.600888 -14.233166 -9.233989 5.223173 -66.098789 -41.156977 33.584991 174.397135 -72.262378 -144.498400 -4.081305 -19.466503 -10.699230 16.422363 6.302331 -3.508721 29.845490 24.923904 -10.398090 -86.293528 44.316217 -68.635645 -1.850667 6.438660 -4.140501 
-22.579395 32.673466 88.963226 80.991728 4.471532 83.118481 17.244757 9.536568 -8.067253 -6.148143 7.613704 36.557343 2.870342 13.880510 -31.480854 nan nan nan -15.810715 -11.876140 -12.118173 3.626050 -12.540293 22.927746 6.867122 -3.343236 -10.112756 nan nan nan -4.810134 3.707444 2.422596 10.317751 -5.535902 14.219971 2.676653 1.138085 -6.581875 5.566309 -19.391791 19.698483 2.603748 -15.243331 17.719258 -14.125015 -9.515813 5.162297 -65.960754 -41.061601 33.597192 174.247593 -72.377239 -144.420355 -3.330663 -19.695631 -11.556017 16.364619 6.586567 -3.549381 29.690591 24.513038 -10.496062 -86.370077 44.278994 -68.886012 -2.667168 6.739303 -4.361428 
-22.533533 32.869099 89.023796 81.657487 4.350538 82.922871 16.906497 9.240184 -7.920687 -6.209914 7.277356 36.335474 2.767595 13.884815 -31.345382 nan nan nan -16.067480 -11.859771 -11.931481 3.151015 -13.036365 23.340665 6.866949 -4.062881 -10.097921 nan nan nan -4.901681 3.745782 2.559306 10.260836 -5.502490 14.381082 2.685407 1.140431 -6.665958 5.613073 -19.477343 19.686694 2.737192 -15.464338 17.679614 -13.912621 -9.713750 4.974221 -65.755659 -40.979921 33.627403 173.791886 -72.331537 -143.677520 -3.020473 -19.550981 -11.461536 16.347579 6.719617 -3.814446 29.650119 24.190707 -10.203918 -86.415039 44.203823 -68.867777 -2.936471 6.669453 -4.587626 
-22.485641 33.056789 89.079468 82.385751 4.305209 82.804319 16.678517 8.979093 -7.855651 -6.366672 6.968278 36.097604 2.747404 13.786005 -31.202920 nan nan nan -16.245408 -11.826104 -11.893661 2.664618 -13.620239 23.946257 6.899981 -4.747968 -10.029949 nan nan nan -4.906184 3.750295 2.693956 10.242623 -5.461060 14.250335 2.682167 1.089218 -6.516087 5.565645 -19.556163 19.727674 2.952875 -15.630511 17.555799 -13.744920 -9.743764 4.770694 -65.663111 -40.934121 33.668156 173.806225 -72.285459 -143.251373 -3.129246 -19.481385 -11.126435 16.241073 6.725911 -4.233039 29.746990 23.994431 -9.869203 -86.464000 44.143987 -68.857389 -2.904118 6.588139 -4.889166 
-22.436161 33.249432 89.143570 83.164453 4.295861 82.693907 16.453408 8.720438 -7.860224 -6.529889 6.609312 35.938897 2.803740 13.831712 -31.093317 nan nan nan -16.373478 -11.809499 -11.897640 2.174566 -14.145463 24.617140 6.809425 -5.418133 -9.757858 nan nan nan -4.880459 3.666965 2.839290 10.265693 -5.452738 13.932998 2.681158 1.106597 -6.194021 5.424210 -19.709878 19.739822 3.019400 -15.604631 17.595602 -13.701051 -9.617733 4.757452 -65.756909 -41.092535 33.677529 174.165705 -72.317250 -143.376886 -3.666335 -19.648262 -11.300922 16.169739 6.709384 -4.511981 29.740022 24.049034 -9.915849 -86.474078 44.142715 -68.828689 -2.647164 6.519894 -4.697528 
-22.379713 33.436092 89.203514 83.953341 4.248190 82.544083 16.202888 8.431212 -7.804833 -6.682444 6.237559 35.792023 2.888322 13.983262 -31.007906 nan nan nan -16.522945 -11.768771 -11.948628 1.655036 -14.600402 25.452929 6.560412 -6.126134 -9.385616 nan nan nan -4.922065 3.633224 2.978836 10.272272 -5.418606 13.696056 2.731195 1.057085 -5.905552 5.337451 -19.907367 19.735646 3.015060 -15.494566 17.551690 -13.580686 -9.653332 4.838218 -65.734978 -41.277281 33.483174 174.503462 -72.275408 -143.763331 -3.843254 -19.643178 -11.723927 16.103699 6.788129 -4.583444 29.640948 24.069306 -10.286749 -86.607344 44.178882 -68.919651 -2.583197 6.354892 -4.166460 
-22.333632 33.592224 89.243721 84.669695 4.211887 82.380476 16.039850 8.223503 -7.647955 -6.787383 5.970969 35.562172 2.945094 13.961880 -30.990876 nan nan nan -16.627768 -11.712447 -12.191208 1.093803 -14.998633 26.613583 6.350941 -6.790725 -9.266718 nan nan nan -4.931302 3.634257 3.142944 10.214606 -5.365944 13.623429 2.767683 0.961826 -5.816635 5.403150 -19.894925 19.715668 2.947841 -15.427730 17.482432 -13.320420 -9.776348 4.774473 -65.625886 -41.266191 33.219148 174.421015 -72.232912 -143.788101 -3.802836 -19.794221 -11.893613 15.983850 6.935297 -4.651587 29.625707 23.986577 -10.410747 -86.736167 44.007139 -68.829221 -2.545681 6.560597 -3.942544 
-22.282206 33.722569 89.275436 85.391067 4.156344 82.219945 15.871599 8.060552 -7.482155 -6.838342 5.733296 35.313624 3.056711 13.782693 -30.981461 nan nan nan -16.763172 -11.672796 -12.424099 0.619389 -15.311312 27.771414 6.039557 -7.435941 -9.403422 nan nan nan -4.921577 3.602664 3.369378 10.134237 -5.293157 13.455215 2.748179 0.802325 -5.701338 5.378432 -19.742200 19.698000 2.989023 -15.301497 17.424084 -13.144196 -9.739461 4.685588 -65.545830 -41.293651 33.081808 174.139049 -72.196766 -143.644297 -4.498556 -20.198134 -11.711138 15.893251 6.838425 -4.855080 29.768135 24.158346 -10.298175 -86.688490 43.899000 -68.524063 -1.893197 6.706022 -3.714614 
-22.235518 33.844624 89.303726 86.107625 4.045624 82.086957 15.654342 7.897020 -7.385134 -6.956135 5.479259 35.102429 3.125183 13.660226 -30.822552 nan nan nan -16.931932 -11.700228 -12.750022 0.164001 -15.509565 28.959318 5.646820 -8.078069 -9.439255 nan nan nan -4.935871 3.587193 3.578302 10.037832 -5.202619 13.290621 2.669556 0.667387 -5.623305 5.321626 -19.753818 19.574225 3.059787 -15.186438 17.620835 -13.076378 -9.643114 4.718189 -65.432758 -41.486979 33.098447 173.802451 -72.192668 -143.555015 -4.944460 -20.411856 -11.965901 15.908721 6.604206 -5.001329 29.804549 24.384791 -10.204773 -86.666873 43.940283 -68.414923 -1.758079 6.488295 -3.536607 
-22.189270 33.972210 89.329170 86.785665 3.975703 81.950827 15.484378 7.768823 -7.286768 -7.066465 5.168285 34.912852 3.125920 13.570246 -30.672786 nan nan nan -17.054328 -11.761602 -13.101043 -0.176570 -15.579106 30.082395 5.265851 -8.623458 -9.463050 nan nan nan -4.999886 3.478446 3.794031 10.014267 -5.161865 13.209272 2.636812 0.684667 -5.625941 5.315110 -19.866257 19.365480 2.921475 -15.182688 17.944764 -12.971892 -9.493357 4.684232 -65.519903 -41.579907 33.200297 173.521679 -72.241941 -143.520905 -4.771225 -20.361764 -12.323673 15.857263 6.500058 -5.134081 29.716573 24.484491 -10.031093 -86.617997 44.038475 -68.424465 -2.256056 6.352170 -3.562920 
-22.136292 34.094612 89.342857 87.382878 3.924514 81.941399 15.321397 7.674931 -7.314949 -7.077927 4.968074 34.778564 3.036708 13.440623 -30.627060 nan nan nan -17.088226 -11.779162 -13.630489 -0.464281 -15.538821 31.162091 4.896822 -8.983222 -9.617825 nan nan nan -5.106006 3.272717 3.961148 10.002716 -5.084361 12.883053 2.648479 0.863445 -5.455818 5.278214 -19.859980 19.270405 2.926301 -15.261647 18.088227 -12.803474 -9.348887 4.451781 -65.771789 -41.530044 33.399621 173.441221 -72.340243 -143.652974 -4.589974 -20.470340 -12.310988 15.729458 6.401953 -5.348423 29.599385 24.426431 -9.967245 -86.547239 44.375900 -68.628994 -2.539862 6.484527 -3.695586 
-22.070864 34.208984 89.368210 87.967523 3.877829 81.928728 15.148785 7.615798 -7.378069 -7.096538 4.731298 34.747598 3.024718 13.304088 -30.555283 nan nan nan -17.099997 -11.706864 -14.070373 -0.647146 -15.430310 31.971844 4.615296 -9.024549 -9.912116 nan nan nan -5.203018 3.045062 4.189047 9.994324 -5.032907 12.456118 2.666776 1.045642 -5.234585 5.233924 -19.732421 19.278055 2.900931 -15.188357 18.065870 -12.630310 -9.186548 4.182604 -66.094802 -41.372852 33.617115 173.331173 -72.370903 -143.576758 -4.596696 -20.605495 -12.303310 15.544788 6.320932 -5.567981 29.567615 24.416856 -9.777109 -86.509298 44.581654 -68.752337 -2.785965 6.667702 -3.963216 
-22.021770 34.312782 89.402588 88.515701 3.916899 81.958443 15.046819 7.573964 -7.504443 -7.132135 4.473172 34.672778 3.143379 13.187570 -30.498863 nan nan nan -16.958163 -11.451176 -14.455919 -0.711911 -15.189724 32.371562 4.478844 -8.756054 -10.232621 nan nan nan -5.190128 2.831894 4.289028 10.008166 -5.002339 12.295613 2.677123 1.143522 -5.119490 5.210379 -19.435974 19.321173 2.928656 -14.930709 17.921410 -12.486014 -9.018085 3.916610 -66.422616 -41.125283 33.779968 173.037448 -72.350674 -143.103987 -4.655638 -20.767876 -12.425816 15.287970 6.244819 -5.790322 29.637828 24.542226 -9.329148 -86.398186 44.618074 -68.659515 -3.217610 6.829052 -4.684182 
-21.974869 34.383347 89.435776 89.073506 3.925393 81.991465 14.948582 7.442060 -7.583195 -7.162625 4.321600 34.491484 3.222243 13.099860 -30.459418 nan nan nan -16.780766 -11.116084 -14.728561 -0.621046 -14.687611 32.392671 4.362292 -8.398222 -10.628586 nan nan nan -5.117813 2.773233 4.316338 9.952676 -4.937092 12.250755 2.629270 1.099524 -5.080004 5.243152 -19.212968 19.273937 2.971374 -14.824903 17.935868 -12.405191 -8.979596 3.818159 -66.413102 -41.103056 33.805732 172.584290 -72.322172 -142.645880 -4.893824 -20.913749 -12.428392 15.161250 6.179701 -5.927111 29.637910 24.586905 -9.004022 -86.455233 44.591629 -68.737197 -3.189616 6.887142 -5.213118 
-21.931299 34.421940 89.450745 89.635165 3.853634 82.060660 14.800117 7.233474 -7.687719 -7.247141 4.170583 34.357335 3.290316 13.017600 -30.345198 nan nan nan -16.659047 -10.866569 -15.002428 -0.415685 -14.025380 32.128825 4.360563 -7.957071 -10.981817 nan nan nan -5.073426 2.892563 4.309327 9.817060 -4.856167 12.030658 2.563327 0.964268 -4.872617 5.275118 -19.165501 19.086047 2.992928 -14.856829 18.005664 -12.283856 -9.111316 3.741468 -66.285459 -41.136759 33.807221 172.218606 -72.294452 -142.233242 -4.675485 -20.838738 -12.490041 15.161237 6.163122 -6.095218 29.507519 24.381174 -8.890178 -86.791013 44.495721 -68.893123 -2.537114 6.878787 -5.259337 
